<svg width="286" height="80" viewBox="0 0 286 80" fill="none" xmlns="http://www.w3.org/2000/svg">
<path d="M279.23 27.1812C274.443 21.6134 267.438 18.5448 258.949 18.3075H258.901C249.854 18.6238 242.322 22.9263 236.785 26.6434C231.073 30.4713 227.403 35.8493 226.446 41.7809C226.222 43.1729 225.983 44.5648 225.727 45.9726C225.313 48.3769 224.866 50.8444 224.563 53.2962C223.509 61.5214 225.807 67.9908 231.392 72.5305C237.424 77.4498 243.742 79.8857 250.508 79.8857C254.194 79.8857 258.008 79.1581 261.981 77.7028L262.172 77.6396C268.316 75.4093 274.65 73.0841 278.56 67.3739C282.278 61.9326 284.544 56.2224 285.309 50.3857C286.506 41.3538 284.336 33.1128 279.23 27.1654V27.1812ZM280.507 50.7021C280.507 50.7021 280.491 50.8286 280.299 50.9552C275.847 52.7109 273.853 54.9254 273.645 58.3736C273.262 65.0487 263.896 71.1227 257.066 70.9171C256.683 70.9171 256.316 70.8854 255.933 70.8538C254.003 70.7273 251.817 70.5691 250.029 72.6254C249.774 72.9101 249.471 72.8626 248.306 72.2932C239.562 68.0699 235.333 61.9643 234.551 52.5211C234.073 46.6686 234.44 42.7774 237.791 38.9179C240.934 35.264 244.173 31.8158 249.072 29.6171C250.029 29.1901 250.939 28.6997 251.817 28.2252C254.098 26.9914 256.125 25.9 258.662 25.9C259.268 25.9 259.891 25.9632 260.561 26.1056C268.954 27.8139 271.73 34.4257 273.821 40.9742C274.22 43.0938 276.182 45.2134 277.906 47.0957C279.102 48.4085 280.602 50.0219 280.507 50.7179V50.7021Z" fill="white"></path>
<path d="M261.774 46.0517C261.263 44.0903 260.609 41.6702 257.561 41.3539C255.519 41.1008 252.439 43.6 250.939 45.1976C249.678 46.5421 249.104 47.6651 249.264 48.5193C249.567 50.2276 250.508 51.7777 251.721 52.5686C252.311 52.9482 252.95 53.1539 253.604 53.1539C253.859 53.1539 254.114 53.1222 254.37 53.059C254.673 52.9799 254.992 52.9166 255.311 52.8533C257.944 52.2839 261.199 51.5721 262.22 47.934L262.284 47.6968L262.204 47.4595C262.045 47.0008 261.917 46.5263 261.79 46.0517H261.774Z" fill="white"></path>
<path d="M56.9865 1.49335V8.67458C56.9865 9.41801 56.6035 9.79763 55.8535 9.79763H34.1047C33.8015 9.79763 33.6579 9.95581 33.6579 10.2405V77.8452C33.6579 78.5887 33.2749 78.9683 32.525 78.9683H23.9084C23.1584 78.9683 22.7755 78.5887 22.7755 77.8452V10.2563C22.7755 9.95581 22.6159 9.81345 22.3287 9.81345H1.58507C0.835107 9.81345 0.452148 9.43382 0.452148 8.69039V1.49335C0.452148 0.749924 0.835107 0.3703 1.58507 0.3703H55.8535C56.6035 0.3703 56.9865 0.749924 56.9865 1.49335Z" fill="white"></path>
<path d="M99.7498 23.3375C103.18 24.9509 105.829 27.1971 107.68 30.0759C109.531 32.9547 110.457 36.2289 110.457 39.8986V77.8611C110.457 78.6045 110.074 78.9841 109.324 78.9841H100.707C99.9572 78.9841 99.5742 78.6045 99.5742 77.8611V73.8117C99.5742 73.4321 99.3828 73.3688 99.0158 73.5903C97.0531 75.6149 94.6596 77.1651 91.8193 78.2565C88.979 79.3479 85.8356 79.8857 82.3571 79.8857C76.7722 79.8857 72.1448 78.4779 68.4748 75.6782C64.8048 72.8785 62.9857 68.6235 62.9857 62.9292C62.9857 57.2348 65.0441 52.5053 69.1609 49.1678C73.2777 45.8303 79.0381 44.1694 86.4419 44.1694H99.1275C99.4306 44.1694 99.5742 44.0271 99.5742 43.7265V40.6895C99.5742 37.3995 98.6168 34.837 96.6861 33.0021C94.7553 31.1673 91.8353 30.2499 87.91 30.2499C84.7346 30.2499 82.1496 30.8668 80.155 32.1005C78.1605 33.3343 76.9318 34.9952 76.4691 37.0989C76.2457 37.8423 75.7829 38.1903 75.1127 38.1112L65.9377 36.8775C65.1877 36.7351 64.8367 36.4346 64.9165 35.9759C65.5228 31.5627 67.9003 27.9405 72.0491 25.1408C76.1978 22.341 81.4156 20.9333 87.6866 20.9333C92.298 20.9333 96.3191 21.74 99.7498 23.3534V23.3375ZM95.1543 67.6428C98.1062 65.5549 99.5742 62.8817 99.5742 59.6707V53.0431C99.5742 52.7426 99.4147 52.6002 99.1275 52.6002H88.4844C84.0325 52.6002 80.4742 53.4544 77.8413 55.1785C75.1925 56.9026 73.8841 59.2911 73.8841 62.3597C73.8841 65.1278 74.8894 67.2316 76.8839 68.6552C78.8785 70.0788 81.5114 70.7906 84.7505 70.7906C88.7557 70.7906 92.2342 69.7466 95.1702 67.6428H95.1543Z" fill="white"></path>
<path d="M157.019 22.7206C157.546 22.9421 157.737 23.4008 157.578 24.0651L155.759 32.496C155.679 33.1761 155.232 33.3976 154.402 33.1761C153.11 32.6541 151.61 32.3852 149.871 32.3852L148.291 32.496C144.732 32.6383 141.812 33.8563 139.515 36.1498C137.217 38.4434 136.052 41.4171 136.052 45.071V77.861C136.052 78.6045 135.669 78.9841 134.919 78.9841H126.303C125.553 78.9841 125.17 78.6045 125.17 77.861V22.9421C125.17 22.1987 125.553 21.819 126.303 21.819H134.919C135.669 21.819 136.052 22.1987 136.052 22.9421V28.8895C136.052 29.111 136.116 29.2533 136.228 29.285C136.339 29.3166 136.435 29.2692 136.515 29.111C139.914 23.8753 144.557 21.2496 150.445 21.2496C152.854 21.2496 155.056 21.74 157.019 22.7048V22.7206Z" fill="white"></path>
<path d="M167.215 77.8611V1.49335C167.215 0.749924 167.598 0.3703 168.348 0.3703H176.964C177.714 0.3703 178.097 0.749924 178.097 1.49335V44.723C178.097 44.8812 178.177 44.9919 178.321 45.0552C178.464 45.1343 178.592 45.0868 178.656 44.9445L199.607 22.3727C199.91 21.9931 200.357 21.8191 200.963 21.8191H211.048C211.495 21.8191 211.782 21.9456 211.893 22.2145C212.005 22.4834 211.909 22.7998 211.606 23.1636L196.99 39.8987C196.83 40.1992 196.799 40.4206 196.878 40.5788L214.207 77.6396L214.319 78.0825C214.319 78.6836 213.984 78.9841 213.298 78.9841H204.234C203.628 78.9841 203.213 78.6836 202.99 78.0825L189.506 47.5386C189.363 47.159 189.171 47.1273 188.948 47.4279L178.305 59.1013C178.145 59.4018 178.081 59.5916 178.081 59.6707V77.8611C178.081 78.6045 177.698 78.9841 176.948 78.9841H168.332C167.582 78.9841 167.199 78.6045 167.199 77.8611H167.215Z" fill="white"></path>
</svg>