<svg width="1261" height="1266" viewBox="0 0 1261 1266" fill="none" xmlns="http://www.w3.org/2000/svg">
<path d="M1128.95 183.195C1030.6 68.8051 886.681 5.76056 712.278 0.885986H711.294C525.417 7.38542 370.683 95.7777 256.927 172.146C139.565 250.789 64.165 361.28 44.4955 483.144C39.9059 511.741 34.9881 540.339 29.7429 569.261C21.2194 618.657 12.0404 669.353 5.81169 719.723C-15.8249 888.708 31.3821 1021.62 146.121 1114.89C270.04 1215.95 399.859 1266 538.858 1266C614.586 1266 692.936 1251.05 774.564 1221.15L778.499 1219.85C904.712 1174.03 1034.86 1126.26 1115.18 1008.95C1191.56 897.158 1238.11 779.843 1253.85 659.928C1278.43 474.37 1233.85 305.059 1128.95 182.87V183.195ZM1155.17 666.428C1155.17 666.428 1154.84 669.028 1150.91 671.627C1059.45 707.699 1018.47 753.195 1014.21 824.039C1006.34 961.177 813.904 1085.97 673.594 1081.74C665.727 1081.74 658.186 1081.09 650.318 1080.44C610.651 1077.84 565.739 1074.59 529.023 1116.84C523.778 1122.69 517.549 1121.71 493.618 1110.01C313.969 1023.25 227.095 897.808 211.031 703.8C201.197 583.56 208.737 503.617 277.58 424.324C342.162 349.256 408.71 278.412 509.353 233.241C529.023 224.466 547.709 214.392 565.739 204.643C612.618 179.295 654.253 156.872 706.377 156.872C718.834 156.872 731.619 158.172 745.388 161.097C917.825 196.194 974.867 332.032 1017.81 466.57C1026.01 510.117 1066.33 553.663 1101.74 592.334C1126.32 619.307 1157.14 652.454 1155.17 666.753V666.428Z" fill="white" fill-opacity="0.2"></path>
<path d="M770.306 570.887C759.815 530.591 746.374 480.87 683.759 474.371C641.798 469.171 578.527 520.517 547.711 553.339C521.813 580.962 510.011 604.035 513.289 621.583C519.518 656.68 538.86 688.527 563.775 704.776C575.904 712.575 589.017 716.8 602.458 716.8C607.703 716.8 612.949 716.15 618.194 714.85C624.423 713.225 630.979 711.925 637.536 710.625C691.627 698.926 758.504 684.303 779.485 609.559L780.796 604.685L779.157 599.81C775.878 590.386 773.256 580.637 770.633 570.887H770.306Z" fill="white" fill-opacity="0.2"></path>
</svg>